<?xml version="1.0" standalone="no"?>
<!DOCTYPE svg PUBLIC "-//W3C//DTD SVG 20010904//EN"
 "http://www.w3.org/TR/2001/REC-SVG-20010904/DTD/svg10.dtd">
<svg version="1.0" xmlns="http://www.w3.org/2000/svg"
 width="760.000000pt" height="760.000000pt" viewBox="0 0 760.000000 760.000000"
 preserveAspectRatio="xMidYMid meet">
<metadata>
Created by potrace 1.14, written by Peter Selinger 2001-2017
</metadata>
<g transform="translate(0.000000,760.000000) scale(0.100000,-0.100000)"
fill="#000000" stroke="none">
<path d="M3505 7242 c-3 -3 -30 -7 -61 -8 -30 -2 -72 -6 -92 -9 -20 -4 -50 -8
-67 -10 -16 -1 -46 -6 -65 -9 -19 -4 -48 -9 -65 -11 -16 -2 -30 -4 -30 -5 0
-1 -9 -3 -20 -5 -44 -8 -133 -28 -180 -42 -27 -8 -61 -17 -75 -19 -32 -7 -114
-32 -165 -51 -22 -8 -47 -17 -55 -18 -27 -7 -194 -72 -265 -105 -88 -39 -238
-113 -245 -120 -3 -3 -14 -10 -25 -16 -82 -45 -125 -70 -177 -104 -33 -22 -62
-40 -64 -40 -8 0 -119 -83 -122 -92 -2 -4 -9 -8 -15 -8 -7 0 -23 -10 -37 -22
-14 -13 -46 -39 -71 -58 -137 -105 -355 -317 -479 -465 -41 -50 -77 -92 -80
-95 -3 -3 -25 -32 -49 -65 -25 -33 -47 -62 -50 -65 -3 -3 -12 -14 -18 -25 -7
-11 -50 -78 -95 -150 -46 -71 -82 -133 -80 -137 1 -4 -2 -8 -8 -8 -5 0 -10 -5
-10 -10 0 -6 -11 -28 -25 -50 -14 -22 -22 -40 -18 -40 5 0 3 -4 -2 -8 -14 -10
-95 -179 -95 -197 0 -8 -4 -15 -10 -15 -5 0 -10 -6 -10 -14 0 -7 -10 -35 -22
-62 -12 -27 -23 -57 -25 -67 -2 -10 -10 -29 -19 -42 -9 -14 -13 -25 -10 -25 3
0 -1 -17 -9 -37 -9 -21 -27 -76 -41 -123 -34 -113 -31 -105 -50 -185 -8 -38
-17 -74 -18 -80 -1 -5 -5 -19 -9 -30 -3 -11 -8 -42 -11 -68 -3 -27 -8 -52 -10
-55 -2 -4 -6 -29 -10 -57 -3 -27 -8 -60 -10 -72 -5 -21 -14 -125 -21 -228 -6
-73 -5 -401 1 -465 3 -30 6 -73 8 -95 7 -78 21 -182 31 -235 8 -36 13 -67 26
-135 14 -75 17 -90 19 -90 1 0 4 -11 6 -25 14 -75 95 -324 152 -465 62 -154
129 -290 232 -470 24 -43 177 -272 194 -292 18 -21 30 -36 56 -73 14 -19 32
-42 40 -50 8 -9 33 -38 55 -65 53 -66 317 -331 380 -380 27 -22 56 -47 65 -55
9 -8 31 -26 50 -40 18 -14 54 -41 79 -61 51 -39 261 -179 301 -199 14 -7 27
-16 30 -19 3 -3 28 -17 55 -31 28 -13 67 -35 87 -47 21 -13 38 -21 38 -18 0 2
19 -6 43 -19 194 -109 709 -274 937 -301 14 -2 41 -6 60 -9 19 -3 55 -8 80
-11 25 -3 59 -8 75 -10 64 -8 256 -18 365 -18 118 0 359 11 369 18 3 2 39 6
80 9 41 4 77 8 80 10 3 2 31 7 61 11 30 4 58 9 61 11 4 2 24 6 44 10 54 8 61
10 155 34 47 12 92 23 100 25 8 2 15 4 15 5 0 1 7 3 15 5 34 7 136 38 145 44
6 4 44 18 85 31 41 14 77 28 78 33 2 4 10 7 18 7 15 0 43 12 214 92 207 97
494 276 655 410 175 144 364 326 475 458 30 36 57 67 60 70 15 15 132 174 170
230 24 36 47 67 52 68 4 2 8 9 8 16 0 8 10 26 23 42 24 31 71 113 90 156 6 16
15 28 19 28 4 0 8 9 8 19 0 11 4 21 8 23 11 4 121 235 121 253 1 3 7 18 15 34
9 16 22 48 31 72 28 78 86 251 90 268 2 9 11 41 20 71 17 61 51 207 59 258 12
66 15 88 22 137 3 28 8 58 10 68 2 10 6 53 9 95 4 42 9 93 11 112 9 87 2 487
-10 566 -3 17 -8 57 -12 90 -9 74 -12 98 -14 104 -1 3 -2 8 -1 12 0 4 -4 28
-9 55 -6 26 -13 62 -16 78 -2 17 -7 41 -11 55 -3 14 -8 34 -10 45 -15 84 -134
465 -153 490 -4 6 -11 21 -15 35 -16 51 -120 266 -177 365 -16 28 -32 58 -35
68 -3 9 -9 17 -14 17 -5 0 -9 5 -9 12 0 11 -160 255 -184 281 -6 7 -30 37 -53
68 -23 31 -47 62 -55 70 -7 8 -35 41 -63 74 -57 69 -268 280 -341 341 -120
102 -203 168 -218 173 -6 2 -13 7 -16 10 -13 16 -120 91 -130 91 -5 0 -10 4
-10 9 0 5 -13 14 -30 21 -16 7 -30 16 -30 21 0 5 -5 9 -10 9 -6 0 -43 20 -83
44 -71 43 -275 148 -349 180 -21 9 -54 23 -73 32 -61 26 -219 84 -233 84 -7 0
-20 4 -30 10 -23 13 -225 70 -249 70 -11 0 -23 3 -27 7 -3 4 -17 8 -29 10 -12
2 -53 10 -92 18 -80 16 -178 32 -250 40 -27 3 -68 9 -90 12 -54 7 -613 12
-620 5z"/>
</g>
</svg>
